<svg width="64" height="53" viewBox="0 0 64 53" fill="none" xmlns="http://www.w3.org/2000/svg">
<g filter="url(#filter0_d_1_35)">
<path d="M39 0H11C9.14348 0 7.36301 0.474106 6.05025 1.31802C4.7375 2.16193 4 3.30653 4 4.5V40.5C4 42.9975 7.115 45 11 45H53C56.885 45 60 42.9975 60 40.5V13.5L39 0ZM53 40.5H11V4.5H35.5V15.75H53V40.5ZM42.5 22.3425V38.25H17.755L25.175 33.48L15.27 27.1125L25.175 20.745L35.08 27.1125L42.5 22.3425Z" fill="white"/>
</g>
<defs>
<filter id="filter0_d_1_35" x="0" y="0" width="64" height="53" filterUnits="userSpaceOnUse" color-interpolation-filters="sRGB">
<feFlood flood-opacity="0" result="BackgroundImageFix"/>
<feColorMatrix in="SourceAlpha" type="matrix" values="0 0 0 0 0 0 0 0 0 0 0 0 0 0 0 0 0 0 127 0" result="hardAlpha"/>
<feOffset dy="4"/>
<feGaussianBlur stdDeviation="2"/>
<feComposite in2="hardAlpha" operator="out"/>
<feColorMatrix type="matrix" values="0 0 0 0 0 0 0 0 0 0 0 0 0 0 0 0 0 0 0.25 0"/>
<feBlend mode="normal" in2="BackgroundImageFix" result="effect1_dropShadow_1_35"/>
<feBlend mode="normal" in="SourceGraphic" in2="effect1_dropShadow_1_35" result="shape"/>
</filter>
</defs>
</svg>
