<svg width="51" height="40" viewBox="0 0 51 40" fill="none" xmlns="http://www.w3.org/2000/svg">
<path d="M10.2499 39.5C7.45408 39.5 5.06068 38.6514 3.06971 36.9542C1.07874 35.2569 0.083252 33.2167 0.083252 30.8333C0.083252 28.45 1.07874 26.4097 3.06971 24.7125C5.06068 23.0153 7.45408 22.1667 10.2499 22.1667C13.0458 22.1667 15.4392 23.0153 17.4301 24.7125C19.4211 26.4097 20.4166 28.45 20.4166 30.8333C20.4166 33.2167 19.4211 35.2569 17.4301 36.9542C15.4392 38.6514 13.0458 39.5 10.2499 39.5ZM40.7499 39.5C37.9541 39.5 35.5607 38.6514 33.5697 36.9542C31.5787 35.2569 30.5833 33.2167 30.5833 30.8333C30.5833 28.45 31.5787 26.4097 33.5697 24.7125C35.5607 23.0153 37.9541 22.1667 40.7499 22.1667C43.5457 22.1667 45.9392 23.0153 47.9301 24.7125C49.9211 26.4097 50.9166 28.45 50.9166 30.8333C50.9166 33.2167 49.9211 35.2569 47.9301 36.9542C45.9392 38.6514 43.5457 39.5 40.7499 39.5ZM10.2499 35.1667C11.6478 35.1667 12.8441 34.7427 13.8388 33.8948C14.8351 33.0455 15.3333 32.025 15.3333 30.8333C15.3333 29.6417 14.8351 28.6219 13.8388 27.774C12.8441 26.9247 11.6478 26.5 10.2499 26.5C8.852 26.5 7.65572 26.9247 6.66108 27.774C5.66475 28.6219 5.16658 29.6417 5.16658 30.8333C5.16658 32.025 5.66475 33.0455 6.66108 33.8948C7.65572 34.7427 8.852 35.1667 10.2499 35.1667ZM40.7499 35.1667C42.1478 35.1667 43.345 34.7427 44.3413 33.8948C45.3359 33.0455 45.8332 32.025 45.8332 30.8333C45.8332 29.6417 45.3359 28.6219 44.3413 27.774C43.345 26.9247 42.1478 26.5 40.7499 26.5C39.352 26.5 38.1549 26.9247 37.1585 27.774C36.1639 28.6219 35.6666 29.6417 35.6666 30.8333C35.6666 32.025 36.1639 33.0455 37.1585 33.8948C38.1549 34.7427 39.352 35.1667 40.7499 35.1667ZM25.4999 17.8333C22.7041 17.8333 20.3107 16.9847 18.3197 15.2875C16.3287 13.5903 15.3333 11.55 15.3333 9.16667C15.3333 6.78333 16.3287 4.74306 18.3197 3.04583C20.3107 1.34861 22.7041 0.5 25.4999 0.5C28.2957 0.5 30.6892 1.34861 32.6801 3.04583C34.6711 4.74306 35.6666 6.78333 35.6666 9.16667C35.6666 11.55 34.6711 13.5903 32.6801 15.2875C30.6892 16.9847 28.2957 17.8333 25.4999 17.8333ZM25.4999 13.5C26.8978 13.5 28.095 13.0753 29.0913 12.226C30.0859 11.3781 30.5833 10.3583 30.5833 9.16667C30.5833 7.975 30.0859 6.95522 29.0913 6.10733C28.095 5.258 26.8978 4.83333 25.4999 4.83333C24.102 4.83333 22.9057 5.258 21.9111 6.10733C20.9148 6.95522 20.4166 7.975 20.4166 9.16667C20.4166 10.3583 20.9148 11.3781 21.9111 12.226C22.9057 13.0753 24.102 13.5 25.4999 13.5Z" fill="white"/>
</svg>
