<svg width="69" height="64" viewBox="0 0 69 64" fill="none" xmlns="http://www.w3.org/2000/svg">
<g filter="url(#filter0_d_7_80)">
<path d="M64.7021 39.1797L61.0088 40.6489C61.2471 41.8397 61.2471 43.0112 61.0088 44.1636L64.7021 45.6328L63.2427 49.061L59.5493 47.563C59.2118 48.0431 58.8345 48.4945 58.4175 48.917C58.0005 49.3395 57.5239 49.714 56.9878 50.0405L58.5366 53.6128L54.9922 55.0244L53.4731 51.4521C52.8774 51.5674 52.2718 51.625 51.6562 51.625C51.0407 51.625 50.4351 51.5674 49.8394 51.4521L48.3203 55.0244L44.7759 53.6128L46.3247 50.0405C45.312 49.3683 44.4582 48.5425 43.7632 47.563L40.0698 49.061L38.6104 45.6328L42.3037 44.1636C42.0654 42.992 42.0654 41.8205 42.3037 40.6489L38.6104 39.1797L40.0698 35.7515L43.7632 37.2495C44.4582 36.27 45.312 35.4442 46.3247 34.772L44.7759 31.1997L48.3203 29.7881L49.8394 33.3604C51.0705 33.1299 52.2817 33.1299 53.4731 33.3604L54.9922 29.7881L58.5366 31.1997L56.9878 34.772C57.4842 35.0985 57.9508 35.4634 58.3877 35.8667C58.8245 36.27 59.2118 36.731 59.5493 37.2495L63.2427 35.7515L64.7021 39.1797ZM53.8306 47.5054C54.5653 47.2173 55.1908 46.814 55.707 46.2954C56.2233 45.7769 56.6304 45.1815 56.9282 44.5093C57.2261 43.8371 57.3651 43.1457 57.3452 42.4351C57.3254 41.7244 57.1864 41.0138 56.9282 40.3032C56.6502 39.6118 56.2432 39.0068 55.707 38.4883C55.1709 37.9697 54.5454 37.576 53.8306 37.3071C53.1356 37.019 52.4108 36.875 51.6562 36.875C50.8818 36.875 50.1571 37.019 49.4819 37.3071C48.7671 37.576 48.1416 37.9697 47.6055 38.4883C47.0693 39.0068 46.6623 39.6118 46.3843 40.3032C45.7687 41.7052 45.7687 43.1073 46.3843 44.5093C46.6623 45.2007 47.0693 45.8057 47.6055 46.3242C48.1416 46.8428 48.7671 47.2365 49.4819 47.5054C50.9315 48.1007 52.381 48.1007 53.8306 47.5054ZM65 0V25.8125H61.1875V14.75H7.8125V44.25H34.5V47.9375H4V0H65ZM61.1875 11.0625V3.6875H7.8125V11.0625H61.1875ZM30.6875 36.875V32.8418C30.0719 32.6305 29.4762 32.304 28.9004 31.8623L25.2964 33.8501L23.3901 30.6812L26.9644 28.6646C26.9048 28.3573 26.875 28.0212 26.875 27.6562C26.875 27.3105 26.9048 26.9744 26.9644 26.6479L23.3901 24.6313L25.2964 21.4624L28.9004 23.4502C29.4762 23.0085 30.0719 22.682 30.6875 22.4707V18.4375H34.5V22.4707C34.8376 22.5859 35.1453 22.7204 35.4233 22.874C35.7013 23.0277 35.9893 23.2197 36.2871 23.4502L39.8911 21.4624L41.7974 24.6313L38.2231 26.6479C38.2827 26.9744 38.3125 27.3105 38.3125 27.6562C38.3125 28.0212 38.2827 28.3573 38.2231 28.6646L41.7974 30.6812L39.8911 33.8501L36.2871 31.8623C36.0091 32.0736 35.7311 32.256 35.4531 32.4097C35.1751 32.5633 34.8574 32.7074 34.5 32.8418V36.875H30.6875ZM29.7344 27.6562C29.7344 28.4245 30.0124 29.0775 30.5684 29.6152C31.1243 30.153 31.7995 30.4219 32.5938 30.4219C33.388 30.4219 34.0632 30.153 34.6191 29.6152C35.1751 29.0775 35.4531 28.4245 35.4531 27.6562C35.4531 26.888 35.1751 26.235 34.6191 25.6973C34.0632 25.1595 33.388 24.8906 32.5938 24.8906C31.7995 24.8906 31.1243 25.1595 30.5684 25.6973C30.0124 26.235 29.7344 26.888 29.7344 27.6562Z" fill="white"/>
</g>
<defs>
<filter id="filter0_d_7_80" x="0" y="0" width="69" height="63.0244" filterUnits="userSpaceOnUse" color-interpolation-filters="sRGB">
<feFlood flood-opacity="0" result="BackgroundImageFix"/>
<feColorMatrix in="SourceAlpha" type="matrix" values="0 0 0 0 0 0 0 0 0 0 0 0 0 0 0 0 0 0 127 0" result="hardAlpha"/>
<feOffset dy="4"/>
<feGaussianBlur stdDeviation="2"/>
<feComposite in2="hardAlpha" operator="out"/>
<feColorMatrix type="matrix" values="0 0 0 0 0 0 0 0 0 0 0 0 0 0 0 0 0 0 0.25 0"/>
<feBlend mode="normal" in2="BackgroundImageFix" result="effect1_dropShadow_7_80"/>
<feBlend mode="normal" in="SourceGraphic" in2="effect1_dropShadow_7_80" result="shape"/>
</filter>
</defs>
</svg>
