<svg width="58" height="67" viewBox="0 0 58 67" fill="none" xmlns="http://www.w3.org/2000/svg">
<g filter="url(#filter0_d_35_2451)">
<path d="M31.5 16.2081V3.24162C31.5 2.32316 31.764 1.55273 32.292 0.930344C32.8182 0.310115 33.4708 0 34.25 0H50.75C51.5292 0 52.1818 0.310115 52.708 0.930344C53.236 1.55273 53.5 2.32316 53.5 3.24162V16.2081C53.5 17.1265 53.236 17.8959 52.708 18.5161C52.1818 19.1385 51.5292 19.4497 50.75 19.4497H34.25C33.4708 19.4497 32.8182 19.1385 32.292 18.5161C31.764 17.8959 31.5 17.1265 31.5 16.2081ZM4 29.1746V3.24162C4 2.32316 4.264 1.55273 4.792 0.930344C5.31817 0.310115 5.97083 0 6.75 0H23.25C24.0292 0 24.6828 0.310115 25.2108 0.930344C25.7369 1.55273 26 2.32316 26 3.24162V29.1746C26 30.093 25.7369 30.8624 25.2108 31.4826C24.6828 32.105 24.0292 32.4162 23.25 32.4162H6.75C5.97083 32.4162 5.31817 32.105 4.792 31.4826C4.264 30.8624 4 30.093 4 29.1746ZM31.5 55.1075V29.1746C31.5 28.2561 31.764 27.4857 32.292 26.8633C32.8182 26.2431 33.4708 25.9329 34.25 25.9329H50.75C51.5292 25.9329 52.1818 26.2431 52.708 26.8633C53.236 27.4857 53.5 28.2561 53.5 29.1746V55.1075C53.5 56.026 53.236 56.7953 52.708 57.4155C52.1818 58.0379 51.5292 58.3491 50.75 58.3491H34.25C33.4708 58.3491 32.8182 58.0379 32.292 57.4155C31.764 56.7953 31.5 56.026 31.5 55.1075ZM4 55.1075V42.141C4 41.2226 4.264 40.4521 4.792 39.8298C5.31817 39.2095 5.97083 38.8994 6.75 38.8994H23.25C24.0292 38.8994 24.6828 39.2095 25.2108 39.8298C25.7369 40.4521 26 41.2226 26 42.141V55.1075C26 56.026 25.7369 56.7953 25.2108 57.4155C24.6828 58.0379 24.0292 58.3491 23.25 58.3491H6.75C5.97083 58.3491 5.31817 58.0379 4.792 57.4155C4.264 56.7953 4 56.026 4 55.1075ZM9.5 25.9329H20.5V6.48324H9.5V25.9329ZM37 51.8659H48V32.4162H37V51.8659ZM37 12.9665H48V6.48324H37V12.9665ZM9.5 51.8659H20.5V45.3827H9.5V51.8659Z" fill="white"/>
</g>
<defs>
<filter id="filter0_d_35_2451" x="0" y="0" width="57.5" height="66.3491" filterUnits="userSpaceOnUse" color-interpolation-filters="sRGB">
<feFlood flood-opacity="0" result="BackgroundImageFix"/>
<feColorMatrix in="SourceAlpha" type="matrix" values="0 0 0 0 0 0 0 0 0 0 0 0 0 0 0 0 0 0 127 0" result="hardAlpha"/>
<feOffset dy="4"/>
<feGaussianBlur stdDeviation="2"/>
<feComposite in2="hardAlpha" operator="out"/>
<feColorMatrix type="matrix" values="0 0 0 0 0 0 0 0 0 0 0 0 0 0 0 0 0 0 0.25 0"/>
<feBlend mode="normal" in2="BackgroundImageFix" result="effect1_dropShadow_35_2451"/>
<feBlend mode="normal" in="SourceGraphic" in2="effect1_dropShadow_35_2451" result="shape"/>
</filter>
</defs>
</svg>
